<svg xmlns="http://www.w3.org/2000/svg" width="710" height="158" viewBox="0 0 710 158">
<rect width="100%" height="100%" fill="#FFFFFF"/>
<rect x="1" y="1" width="708" height="146" rx="18" fill="#FFFFFF" stroke="#E7DDF8" stroke-width="1.5"/>
<rect x="18" y="23" width="44" height="44" rx="11" fill="#EEE7FF"/><text x="40" y="45" dominant-baseline="middle" text-anchor="middle" font-size="12" font-weight="800" fill="#6D4BD1" font-family="ui-monospace,SFMono-Regular,Menlo,Consolas,monospace">01</text>
<text x="76" y="38" font-family="-apple-system,BlinkMacSystemFont,Segoe UI,sans-serif" font-size="20" font-weight="800" fill="#241F31">AI Interactive Portfolio</text>
<text x="76" y="62" font-family="-apple-system,BlinkMacSystemFont,Segoe UI,sans-serif" font-size="12.5" fill="#6F6880">Evidence-grounded portfolio with Ask My Portfolio and JD Evidence Matcher.</text>
<g><rect x="76" y="87" width="80" height="28" rx="14" fill="#EEF9FF" stroke="#D2ECF8"/><g transform="translate(86,94)"><circle cx="7" cy="7" r="1.4" fill="#149ECA"/><ellipse cx="7" cy="7" rx="6" ry="2.5" fill="none" stroke="#149ECA" stroke-width="1.2"/><ellipse cx="7" cy="7" rx="6" ry="2.5" fill="none" stroke="#149ECA" stroke-width="1.2" transform="rotate(60 7 7)"/><ellipse cx="7" cy="7" rx="6" ry="2.5" fill="none" stroke="#149ECA" stroke-width="1.2" transform="rotate(120 7 7)"/></g><text x="107" y="101" dominant-baseline="middle" font-family="-apple-system,BlinkMacSystemFont,'Segoe UI',sans-serif" font-size="10.6" font-weight="650" fill="#241F31">React</text></g>
<g><rect x="163" y="87" width="113" height="28" rx="14" fill="#EEF6FF" stroke="#D6E8FF"/><g transform="translate(173,94)"><rect width="14" height="14" rx="2.5" fill="#3178C6"/><text x="7" y="7.4" dominant-baseline="middle" text-anchor="middle" font-size="7.6" font-family="Arial" font-weight="700" fill="white">TS</text></g><text x="194" y="101" dominant-baseline="middle" font-family="-apple-system,BlinkMacSystemFont,'Segoe UI',sans-serif" font-size="10.6" font-weight="650" fill="#241F31">TypeScript</text></g>
<g><rect x="283" y="87" width="69" height="28" rx="14" fill="#F4EEFF" stroke="#E4D8FF"/><g transform="translate(293,94)"><circle cx="4" cy="4" r="2" fill="#8B5CF6"/><circle cx="10" cy="4" r="2" fill="#8B5CF6"/><circle cx="7" cy="10" r="2" fill="#8B5CF6"/><path d="M5.3 5.2 6.3 8M8.7 8 9.7 5.2" stroke="#8B5CF6" stroke-width="1.2"/></g><text x="314" y="101" dominant-baseline="middle" font-family="-apple-system,BlinkMacSystemFont,'Segoe UI',sans-serif" font-size="10.6" font-weight="650" fill="#241F31">LLM</text></g>
<g><rect x="359" y="87" width="87" height="28" rx="14" fill="#F4F4F5" stroke="#DFDFE3"/><g transform="translate(369,94)"><path d="M7 1.8 13 12H1z" fill="#111"/></g><text x="390" y="101" dominant-baseline="middle" font-family="-apple-system,BlinkMacSystemFont,'Segoe UI',sans-serif" font-size="10.6" font-weight="650" fill="#241F31">Vercel</text></g>
<rect x="620" y="91" width="72" height="28" rx="14" fill="#F0E8FF"/><text x="656" y="105" dominant-baseline="middle" text-anchor="middle" font-family="ui-monospace,SFMono-Regular,Menlo,Consolas,monospace" font-size="10.5" font-weight="800" fill="#6D4BD1">LIVE</text>
</svg>