<svg xmlns="http://www.w3.org/2000/svg" width="710" height="158" viewBox="0 0 710 158">
<rect width="100%" height="100%" fill="#FFFFFF"/>
<rect x="1" y="1" width="708" height="146" rx="18" fill="#FFFFFF" stroke="#E7DDF8" stroke-width="1.5"/>
<rect x="18" y="23" width="44" height="44" rx="11" fill="#EEE7FF"/><text x="40" y="45" dominant-baseline="middle" text-anchor="middle" font-size="12" font-weight="800" fill="#6D4BD1" font-family="ui-monospace,SFMono-Regular,Menlo,Consolas,monospace">02</text>
<text x="76" y="38" font-family="-apple-system,BlinkMacSystemFont,Segoe UI,sans-serif" font-size="20" font-weight="800" fill="#241F31">Quant Research Platform</text>
<text x="76" y="62" font-family="-apple-system,BlinkMacSystemFont,Segoe UI,sans-serif" font-size="12.5" fill="#6F6880">Reproducible quantitative research infrastructure with explicit validation boundaries.</text>
<g><rect x="76" y="87" width="87" height="28" rx="14" fill="#EEF6FF" stroke="#D6E8FF"/><g transform="translate(86,94)"><circle cx="7" cy="5" r="3.6" fill="#3776AB"/><circle cx="9" cy="11" r="3.6" fill="#FFD43B"/><circle cx="5.7" cy="4.2" r=".55" fill="white"/><circle cx="10.3" cy="11.8" r=".55" fill="#2b2b2b"/></g><text x="107" y="101" dominant-baseline="middle" font-family="-apple-system,BlinkMacSystemFont,'Segoe UI',sans-serif" font-size="10.6" font-weight="650" fill="#241F31">Python</text></g>
<g><rect x="170" y="87" width="87" height="28" rx="14" fill="#EEF8FC" stroke="#D5EDF6"/><g transform="translate(180,94)"><rect x="1" y="1" width="4.7" height="4.7" rx="1" fill="#0A9EDC"/><rect x="7.3" y="1" width="4.7" height="4.7" rx="1" fill="#5BC0EB"/><rect x="1" y="7.3" width="4.7" height="4.7" rx="1" fill="#127EA8"/><rect x="7.3" y="7.3" width="4.7" height="4.7" rx="1" fill="#0A9EDC"/></g><text x="201" y="101" dominant-baseline="middle" font-family="-apple-system,BlinkMacSystemFont,'Segoe UI',sans-serif" font-size="10.6" font-weight="650" fill="#241F31">pytest</text></g>
<g><rect x="264" y="87" width="139" height="28" rx="14" fill="#F4EEFF" stroke="#E4D8FF"/><g transform="translate(274,94)"><path d="M7 1.5 12 3.2v3.5c0 2.8-2 5.2-5 6.7-3-1.5-5-3.9-5-6.7V3.2z" fill="none" stroke="#7C3AED" stroke-width="1.4"/></g><text x="295" y="101" dominant-baseline="middle" font-family="-apple-system,BlinkMacSystemFont,'Segoe UI',sans-serif" font-size="10.6" font-weight="650" fill="#241F31">Research Infra</text></g>
<rect x="613" y="91" width="79" height="28" rx="14" fill="#F2F2F5"/><text x="652.5" y="105" dominant-baseline="middle" text-anchor="middle" font-family="ui-monospace,SFMono-Regular,Menlo,Consolas,monospace" font-size="10.5" font-weight="800" fill="#646170">PRIVATE</text>
</svg>