<svg xmlns="http://www.w3.org/2000/svg" width="1200" height="320" viewBox="0 0 1200 320" role="img" aria-label="About Me">
<rect width="1200" height="320" fill="#fff"/>
<g transform="translate(42,25)" fill="none" stroke="#7C5CFC" stroke-width="2.4" stroke-linecap="round" stroke-linejoin="round"><circle cx="12" cy="10" r="6"/><path d="M2 29c1.8-7 6.1-10 10-10s8.2 3 10 10"/></g>
<text x="82" y="50" font-family="-apple-system,BlinkMacSystemFont,'Segoe UI',sans-serif" font-size="34" font-weight="800" fill="#211b2f">About Me</text>
<line x1="42" y1="70" x2="1158" y2="70" stroke="#ddd5ee" stroke-width="2"/>
<rect x="42" y="98" width="720" height="176" rx="16" fill="#f8f9fc" stroke="#e6e9f0"/>
<text x="70" y="136" font-family="-apple-system,BlinkMacSystemFont,'Segoe UI',sans-serif" font-size="21" font-weight="700" fill="#302940">I build backend and AI systems, mostly in Python.</text>
<text x="70" y="172" font-family="-apple-system,BlinkMacSystemFont,'Segoe UI',sans-serif" font-size="18" fill="#625b73">Lately I've been working on RAG, evaluation, research tooling, and automation.</text>
<text x="70" y="201" font-family="-apple-system,BlinkMacSystemFont,'Segoe UI',sans-serif" font-size="18" fill="#625b73">I like turning ideas into software I can test, measure, and keep improving.</text>
<text x="70" y="242" font-family="-apple-system,BlinkMacSystemFont,'Segoe UI',sans-serif" font-size="15" fill="#8A80A0">Backend · AI/LLM · RAG / Evaluation · Research Infrastructure</text>
<rect x="798" y="98" width="360" height="176" rx="16" fill="#fbf9ff" stroke="#e4dcf7"/>
<text x="826" y="133" font-family="-apple-system,BlinkMacSystemFont,'Segoe UI',sans-serif" font-size="18" font-weight="800" fill="#6d4bd1">Current focus</text>
<g font-family="-apple-system,BlinkMacSystemFont,'Segoe UI',sans-serif" font-size="14" font-weight="700" fill="#4d4268" text-anchor="middle">
<rect x="826" y="151" width="92" height="34" rx="17" fill="#f1ebff"/><text x="872" y="168" dominant-baseline="middle">AI agents</text>
<rect x="928" y="151" width="106" height="34" rx="17" fill="#f1ebff"/><text x="981" y="168" dominant-baseline="middle">RAG / eval</text>
<rect x="1044" y="151" width="98" height="34" rx="17" fill="#f1ebff"/><text x="1093" y="168" dominant-baseline="middle">Automation</text>
<rect x="826" y="195" width="132" height="34" rx="17" fill="#f1ebff"/><text x="892" y="212" dominant-baseline="middle">Quant research</text>
<rect x="968" y="195" width="160" height="34" rx="17" fill="#f1ebff"/><text x="1048" y="212" dominant-baseline="middle">Research tooling</text>
</g>
</svg>