<svg xmlns="http://www.w3.org/2000/svg" width="1200" height="484" viewBox="0 0 1200 484"><rect width="1200" height="484" fill="#0f141a"/><svg x="0" y="0" width="1200" height="82" viewBox="0 0 1200 82"><rect width="1200" height="82" rx="18" fill="#111820" stroke="#30363d" stroke-opacity=".72"/><text x="28" y="40" font-family="-apple-system,BlinkMacSystemFont,'Segoe UI',sans-serif" font-size="28" font-weight="700" fill="#f0f6fc">Featured Projects</text><text x="28" y="63" font-family="-apple-system,BlinkMacSystemFont,'Segoe UI',sans-serif" font-size="13" fill="#9da7b3">A few representative builds across portfolio, research infrastructure, and multimodal systems.</text></svg><svg x="72" y="90" width="1056" height="126.3" viewBox="0 0 1020 122"><rect x="1" y="1" width="1018" height="120" rx="18" fill="#0f141a" stroke="#30363d" stroke-opacity=".26"/><rect x="18" y="20" width="34" height="24" rx="6" fill="#1a1724" stroke="#5b4d78" stroke-opacity=".52"/><text x="35" y="37" text-anchor="middle" font-family="ui-monospace,SFMono-Regular,Menlo,Consolas,monospace" font-size="12" font-weight="700" fill="#d8b4fe">01</text><text x="66" y="39" font-family="-apple-system,BlinkMacSystemFont,Segoe UI,sans-serif" font-size="21" font-weight="700" fill="#f0f6fc">AI Interactive Portfolio</text><text x="66" y="67" font-family="-apple-system,BlinkMacSystemFont,Segoe UI,sans-serif" font-size="14" fill="#9da7b3">Evidence-grounded portfolio with Ask My Portfolio and JD Evidence Matcher.</text><g><rect x="66" y="82" width="64" height="24" rx="12" fill="#087EA4" opacity=".96"/><rect x="66" y="82" width="64" height="24" rx="12" fill="#10141f" opacity=".10"/><rect x="66.8" y="82.8" width="62.4" height="22.4" rx="11" fill="none" stroke="#fff" stroke-opacity=".14"/><g transform="translate(73,87) scale(0.56)"><circle cx="12" cy="12" r="1.8" fill="#fff"/><ellipse cx="12" cy="12" rx="9" ry="3.8" fill="none" stroke="#fff" stroke-width="1.8"/><ellipse cx="12" cy="12" rx="9" ry="3.8" fill="none" stroke="#fff" stroke-width="1.8" transform="rotate(60 12 12)"/><ellipse cx="12" cy="12" rx="9" ry="3.8" fill="none" stroke="#fff" stroke-width="1.8" transform="rotate(120 12 12)"/></g><text x="90" y="98" font-family="-apple-system,BlinkMacSystemFont,Segoe UI,sans-serif" font-size="11" font-weight="650" fill="#fff">React</text></g><g><rect x="137" y="82" width="98" height="24" rx="12" fill="#3178C6" opacity=".96"/><rect x="137" y="82" width="98" height="24" rx="12" fill="#10141f" opacity=".10"/><rect x="137.8" y="82.8" width="96.4" height="22.4" rx="11" fill="none" stroke="#fff" stroke-opacity=".14"/><g transform="translate(144,87)"><rect width="14" height="14" rx="2.1" fill="#fff"/><path d="M2.7 4h8.6v1.6H8.3v4.5H6.4V5.6H2.7zm6.2 4.7 1.1-1.3c.8.6 1.3.9 2.1.9.5 0 .9-.2.9-.5 0-.3-.3-.4-1.4-.7-1.4-.3-2.3-.7-2.3-2 0-1.1 1-1.9 2.5-1.9 1.1 0 2 .3 2.7.8l-.8 1.2c-.7-.4-1.3-.7-1.9-.7-.5 0-.8.2-.8.5 0 .3.3.4 1.4.7 1.4.4 2.2.8 2.2 1.9 0 1.3-1 2-2.6 2-1.1 0-2.2-.4-3.1-1.3z" fill="#3178C6"/></g><text x="161" y="98" font-family="-apple-system,BlinkMacSystemFont,Segoe UI,sans-serif" font-size="11" font-weight="650" fill="#fff">TypeScript</text></g><g><rect x="242" y="82" width="64" height="24" rx="12" fill="#7C3AED" opacity=".96"/><rect x="242" y="82" width="64" height="24" rx="12" fill="#10141f" opacity=".10"/><rect x="242.8" y="82.8" width="62.4" height="22.4" rx="11" fill="none" stroke="#fff" stroke-opacity=".14"/><g transform="translate(249,87)"><rect x="1.2" y="1.2" width="3.8" height="3.8" rx=".9" fill="#fff"/><rect x="8.8" y="1.2" width="3.8" height="3.8" rx=".9" fill="#fff"/><rect x="5" y="8.8" width="3.8" height="3.8" rx=".9" fill="#fff"/><path d="M5 3.1h3.8M3.1 5v1.4L7 8.2l3.9-1.8V5" stroke="#fff" stroke-width="1.1" fill="none" stroke-linecap="round"/></g><text x="266" y="98" font-family="-apple-system,BlinkMacSystemFont,Segoe UI,sans-serif" font-size="11" font-weight="650" fill="#fff">LLM</text></g><g><rect x="313" y="82" width="70" height="24" rx="12" fill="#3F4650" opacity=".96"/><rect x="313" y="82" width="70" height="24" rx="12" fill="#10141f" opacity=".10"/><rect x="313.8" y="82.8" width="68.4" height="22.4" rx="11" fill="none" stroke="#fff" stroke-opacity=".14"/><g transform="translate(320,87)"><path d="M7 1.6 13 12H1z" fill="#fff"/></g><text x="337" y="98" font-family="-apple-system,BlinkMacSystemFont,Segoe UI,sans-serif" font-size="11" font-weight="650" fill="#fff">Vercel</text></g><rect x="914" y="84" width="86" height="26" rx="13" fill="#8B5CF6" opacity=".96"/><rect x="914.8" y="84.8" width="84.4" height="24.4" rx="12.2" fill="none" stroke="#fff" stroke-opacity=".12"/><text x="957" y="101" text-anchor="middle" font-family="ui-monospace,SFMono-Regular,Menlo,Consolas,monospace" font-size="11" font-weight="700" fill="#fff">LIVE</text></svg><svg x="72" y="224.3" width="1056" height="126.3" viewBox="0 0 1020 122"><rect x="1" y="1" width="1018" height="120" rx="18" fill="#0f141a" stroke="#30363d" stroke-opacity=".26"/><rect x="18" y="20" width="34" height="24" rx="6" fill="#1a1724" stroke="#5b4d78" stroke-opacity=".52"/><text x="35" y="37" text-anchor="middle" font-family="ui-monospace,SFMono-Regular,Menlo,Consolas,monospace" font-size="12" font-weight="700" fill="#d8b4fe">02</text><text x="66" y="39" font-family="-apple-system,BlinkMacSystemFont,Segoe UI,sans-serif" font-size="21" font-weight="700" fill="#f0f6fc">Quant Research Platform</text><text x="66" y="67" font-family="-apple-system,BlinkMacSystemFont,Segoe UI,sans-serif" font-size="14" fill="#9da7b3">Reproducible quantitative research infrastructure with explicit validation boundaries.</text><g><rect x="66" y="82" width="70" height="24" rx="12" fill="#3776AB" opacity=".96"/><rect x="66" y="82" width="70" height="24" rx="12" fill="#10141f" opacity=".10"/><rect x="66.8" y="82.8" width="68.4" height="22.4" rx="11" fill="none" stroke="#fff" stroke-opacity=".14"/><g transform="translate(73,87) scale(0.48)"><path fill="#fff" d="M14.31 0c-1.16.01-2.26.1-3.22.27-2.84.5-3.35 1.54-3.35 3.43v2.52h6.69v.84H5.2c-1.9 0-3.57 1.14-4.09 3.31-.6 2.49-.63 4.04 0 6.64.47 1.94 1.58 3.31 3.48 3.31H6.8v-2.94c0-2.13 1.84-4.01 4.09-4.01h6.67c1.86 0 3.35-1.53 3.35-3.4V3.43C20.91 1.57 19.34.17 17.56.06 16.43-.01 15.35-.01 14.31 0Zm-3.62 2.03c.7 0 1.26.58 1.26 1.29 0 .7-.56 1.27-1.26 1.27-.71 0-1.28-.57-1.28-1.27 0-.71.57-1.29 1.28-1.29Z"/><path fill="#fff" d="M12.69 21.27c1.16-.01 2.26-.1 3.22-.27 2.84-.5 3.35-1.54 3.35-3.43v-2.52h-6.69v-.84h9.23c1.9 0 3.57-1.14 4.09-3.31.6-2.49.63-4.04 0-6.64-.47-1.94-1.58-3.31-3.48-3.31h-2.21v2.94c0 2.13-1.84 4.01-4.09 4.01h-6.67c-1.86 0-3.35 1.53-3.35 3.4v6.54c0 1.86 1.57 3.26 3.35 3.37 1.13.07 2.21.07 3.25 0Zm3.62-2.03c-.7 0-1.26-.58-1.26-1.29 0-.7.56-1.27 1.26-1.27.71 0 1.28.57 1.28 1.27 0 .71-.57 1.29-1.28 1.29Z"/></g><text x="90" y="98" font-family="-apple-system,BlinkMacSystemFont,Segoe UI,sans-serif" font-size="11" font-weight="650" fill="#fff">Python</text></g><g><rect x="143" y="82" width="70" height="24" rx="12" fill="#0A9EDC" opacity=".96"/><rect x="143" y="82" width="70" height="24" rx="12" fill="#10141f" opacity=".10"/><rect x="143.8" y="82.8" width="68.4" height="22.4" rx="11" fill="none" stroke="#fff" stroke-opacity=".14"/><g transform="translate(150,87)"><rect x="1" y="1" width="4.7" height="4.7" rx="1.05" fill="#fff"/><rect x="7.3" y="1" width="4.7" height="4.7" rx="1.05" fill="#fff" opacity=".78"/><rect x="1" y="7.3" width="4.7" height="4.7" rx="1.05" fill="#fff" opacity=".9"/><rect x="7.3" y="7.3" width="4.7" height="4.7" rx="1.05" fill="#fff" opacity=".56"/></g><text x="167" y="98" font-family="-apple-system,BlinkMacSystemFont,Segoe UI,sans-serif" font-size="11" font-weight="650" fill="#fff">pytest</text></g><g><rect x="220" y="82" width="126" height="24" rx="12" fill="#6b57d3" opacity=".96"/><rect x="220" y="82" width="126" height="24" rx="12" fill="#10141f" opacity=".10"/><rect x="220.8" y="82.8" width="124.4" height="22.4" rx="11" fill="none" stroke="#fff" stroke-opacity=".14"/><g transform="translate(227,87)"><path d="M7 1.4 11.5 3v3.4c0 2.7-1.9 5.1-4.5 6.4C4.4 11.5 2.5 9.1 2.5 6.4V3z" fill="none" stroke="#fff" stroke-width="1.4"/><path d="M7 4.5v4.2" stroke="#fff" stroke-width="1.4" stroke-linecap="round"/><circle cx="7" cy="3.6" r=".8" fill="#fff"/></g><text x="244" y="98" font-family="-apple-system,BlinkMacSystemFont,Segoe UI,sans-serif" font-size="11" font-weight="650" fill="#fff">Research Infra</text></g><rect x="914" y="84" width="86" height="26" rx="13" fill="#5B6470" opacity=".96"/><rect x="914.8" y="84.8" width="84.4" height="24.4" rx="12.2" fill="none" stroke="#fff" stroke-opacity=".12"/><text x="957" y="101" text-anchor="middle" font-family="ui-monospace,SFMono-Regular,Menlo,Consolas,monospace" font-size="11" font-weight="700" fill="#fff">PRIVATE</text></svg><svg x="72" y="358.6" width="1056" height="126.3" viewBox="0 0 1020 122"><rect x="1" y="1" width="1018" height="120" rx="18" fill="#0f141a" stroke="#30363d" stroke-opacity=".26"/><rect x="18" y="20" width="34" height="24" rx="6" fill="#1a1724" stroke="#5b4d78" stroke-opacity=".52"/><text x="35" y="37" text-anchor="middle" font-family="ui-monospace,SFMono-Regular,Menlo,Consolas,monospace" font-size="12" font-weight="700" fill="#d8b4fe">03</text><text x="66" y="39" font-family="-apple-system,BlinkMacSystemFont,Segoe UI,sans-serif" font-size="21" font-weight="700" fill="#f0f6fc">Video Similarity System</text><text x="66" y="67" font-family="-apple-system,BlinkMacSystemFont,Segoe UI,sans-serif" font-size="14" fill="#9da7b3">Multimodal video comparison across visual, audio, and semantic signals.</text><g><rect x="66" y="82" width="77" height="24" rx="12" fill="#009688" opacity=".96"/><rect x="66" y="82" width="77" height="24" rx="12" fill="#10141f" opacity=".10"/><rect x="66.8" y="82.8" width="75.4" height="22.4" rx="11" fill="none" stroke="#fff" stroke-opacity=".14"/><g transform="translate(73,87)"><path d="M7.6.8 2 8.6h3.7l-1.2 5.4 5.7-7.9H6.6z" fill="#fff"/><path d="M9.3 1.2h1.5v10h-1.5z" fill="#fff" opacity=".9"/></g><text x="90" y="98" font-family="-apple-system,BlinkMacSystemFont,Segoe UI,sans-serif" font-size="11" font-weight="650" fill="#fff">FastAPI</text></g><g><rect x="150" y="82" width="64" height="24" rx="12" fill="#42B883" opacity=".96"/><rect x="150" y="82" width="64" height="24" rx="12" fill="#10141f" opacity=".10"/><rect x="150.8" y="82.8" width="62.4" height="22.4" rx="11" fill="none" stroke="#fff" stroke-opacity=".14"/><g transform="translate(157,87)"><path d="M1 1h3L7 6 10 1h3L7 11z" fill="#fff"/><path d="M4 1h2l1 1.8L8 1h2L7 5.5z" fill="#fff" opacity=".74"/></g><text x="174" y="98" font-family="-apple-system,BlinkMacSystemFont,Segoe UI,sans-serif" font-size="11" font-weight="650" fill="#fff">Vue</text></g><g><rect x="221" y="82" width="64" height="24" rx="12" fill="#76B900" opacity=".96"/><rect x="221" y="82" width="64" height="24" rx="12" fill="#10141f" opacity=".10"/><rect x="221.8" y="82.8" width="62.4" height="22.4" rx="11" fill="none" stroke="#fff" stroke-opacity=".14"/><g transform="translate(228,87)"><circle cx="7" cy="7" r="5.3" fill="none" stroke="#fff" stroke-width="1.5"/><path d="m4 7.2 1.8 1.8 4-4.2" stroke="#fff" stroke-width="1.6" stroke-linecap="round" stroke-linejoin="round" fill="none"/></g><text x="245" y="98" font-family="-apple-system,BlinkMacSystemFont,Segoe UI,sans-serif" font-size="11" font-weight="650" fill="#fff">CUDA</text></g><rect x="914" y="84" width="86" height="26" rx="13" fill="#2b3442" opacity=".96"/><rect x="914.8" y="84.8" width="84.4" height="24.4" rx="12.2" fill="none" stroke="#fff" stroke-opacity=".12"/><text x="957" y="101" text-anchor="middle" font-family="ui-monospace,SFMono-Regular,Menlo,Consolas,monospace" font-size="11" font-weight="700" fill="#fff">REPO</text></svg></svg>